<svg xmlns="http://www.w3.org/2000/svg" width="140.453" height="200" viewBox="0 0 140.453 200"><path d="M756.668,3505.719a16.759,16.759,0,0,0-12.04,4.037,17.473,17.473,0,0,0-28.488-8.523c-.11-.033-.231-.054-.341-.082l5.683-64.775a15.276,15.276,0,1,0-30.435-2.672l-5.906,67.3q-1.708.208-3.277.4l-18.812-61.848a15.275,15.275,0,1,0-29.229,8.887l21.291,70-1.065.9-13.117,8.051a17.8,17.8,0,0,0-8.518,15.859c1.023,11.335,22.4,63.595,27.91,76.5h98.618c3.224-21.37,13.861-94.126,13.861-94.126C773.524,3515.31,766.3,3506.389,756.668,3505.719Z" transform="translate(-632.4 -3419.761)"/></svg>