<svg xmlns="http://www.w3.org/2000/svg" width="187.881" height="200" viewBox="0 0 187.881 200"><path d="M102.366,263.266a87.719,87.719,0,1,0,39.517,166l28.474,28.475a18.847,18.847,0,1,0,26.653-26.653l-25.817-25.812a87.651,87.651,0,0,0-68.828-142.012Zm0,19.768a67.954,67.954,0,1,1-67.954,67.954A67.8,67.8,0,0,1,102.366,283.033Zm-.033,16.959a25.53,25.53,0,1,0,25.53,25.532,25.53,25.53,0,0,0-25.53-25.532ZM79.957,350.614c-8.938,4.969-14.172,12.629-14.179,20.748,0,14.5,16.367,26.258,36.556,26.258s36.554-11.756,36.555-26.258c-.017-8.117-5.259-15.773-14.2-20.737a33.507,33.507,0,0,1-44.731-.011Z" transform="translate(-14.651 -263.266)"/></svg>